<svg width="39" height="39" viewBox="0 0 39 39" fill="none" xmlns="http://www.w3.org/2000/svg">
<rect x="0.5" y="0.5" width="38" height="38" rx="9.5" fill="white" fill-opacity="0.1"/>
<rect x="0.5" y="0.5" width="38" height="38" rx="9.5" stroke="#404040"/>
<path d="M15.6683 25.1939C14.8497 25.1939 14.147 24.9867 13.5604 24.5724C12.977 24.1548 12.5279 23.5533 12.2131 22.7678C11.9015 21.9789 11.7457 21.0294 11.7457 19.919C11.7491 18.8087 11.9065 17.8641 12.218 17.0852C12.5329 16.303 12.982 15.7064 13.5653 15.2955C14.152 14.8845 14.853 14.679 15.6683 14.679C16.4837 14.679 17.1847 14.8845 17.7713 15.2955C18.358 15.7064 18.8071 16.303 19.1186 17.0852C19.4335 17.8674 19.5909 18.812 19.5909 19.919C19.5909 21.0327 19.4335 21.9839 19.1186 22.7727C18.8071 23.5582 18.358 24.1581 17.7713 24.5724C17.188 24.9867 16.487 25.1939 15.6683 25.1939ZM15.6683 23.6378C16.3047 23.6378 16.8068 23.3246 17.1747 22.6982C17.5459 22.0684 17.7315 21.142 17.7315 19.919C17.7315 19.1103 17.647 18.4309 17.478 17.8807C17.3089 17.3305 17.0703 16.9162 16.7621 16.6378C16.4538 16.3561 16.0893 16.2152 15.6683 16.2152C15.0353 16.2152 14.5348 16.5301 14.1669 17.1598C13.799 17.7862 13.6134 18.706 13.6101 19.919C13.6068 20.7311 13.688 21.4138 13.8537 21.9673C14.0227 22.5208 14.2614 22.9384 14.5696 23.2202C14.8778 23.4986 15.2441 23.6378 15.6683 23.6378ZM21.0588 23.1108V21.6442L25.3791 14.8182H26.6021V16.9062H25.8564L22.948 21.5149V21.5945H28.9785V23.1108H21.0588ZM25.916 25V22.6634L25.9359 22.0071V14.8182H27.676V25H25.916Z" fill="#9CA3AF"/>
</svg>
