<svg width="39" height="39" viewBox="0 0 39 39" fill="none" xmlns="http://www.w3.org/2000/svg">
<rect x="0.5" y="0.5" width="38" height="38" rx="9.5" fill="white" fill-opacity="0.1"/>
<rect x="0.5" y="0.5" width="38" height="38" rx="9.5" stroke="#404040"/>
<path d="M15.6683 25.1939C14.8497 25.1939 14.147 24.9867 13.5604 24.5724C12.977 24.1548 12.5279 23.5533 12.2131 22.7678C11.9015 21.9789 11.7457 21.0294 11.7457 19.919C11.7491 18.8087 11.9065 17.8641 12.218 17.0852C12.5329 16.303 12.982 15.7064 13.5653 15.2955C14.152 14.8845 14.853 14.679 15.6683 14.679C16.4837 14.679 17.1847 14.8845 17.7713 15.2955C18.358 15.7064 18.8071 16.303 19.1186 17.0852C19.4335 17.8674 19.5909 18.812 19.5909 19.919C19.5909 21.0327 19.4335 21.9839 19.1186 22.7727C18.8071 23.5582 18.358 24.1581 17.7713 24.5724C17.188 24.9867 16.487 25.1939 15.6683 25.1939ZM15.6683 23.6378C16.3047 23.6378 16.8068 23.3246 17.1747 22.6982C17.5459 22.0684 17.7315 21.142 17.7315 19.919C17.7315 19.1103 17.647 18.4309 17.478 17.8807C17.3089 17.3305 17.0703 16.9162 16.7621 16.6378C16.4538 16.3561 16.0893 16.2152 15.6683 16.2152C15.0353 16.2152 14.5348 16.5301 14.1669 17.1598C13.799 17.7862 13.6134 18.706 13.6101 19.919C13.6068 20.7311 13.688 21.4138 13.8537 21.9673C14.0227 22.5208 14.2614 22.9384 14.5696 23.2202C14.8778 23.4986 15.2441 23.6378 15.6683 23.6378ZM24.8968 25.1392C24.1809 25.1392 23.5446 25.0166 22.9877 24.7713C22.4342 24.526 21.9967 24.1847 21.6752 23.7472C21.3538 23.3097 21.1831 22.8042 21.1632 22.2308H23.0325C23.0491 22.5059 23.1402 22.7462 23.3059 22.9517C23.4717 23.1539 23.6921 23.3113 23.9672 23.424C24.2422 23.5367 24.5505 23.593 24.8919 23.593C25.2565 23.593 25.5796 23.5301 25.8613 23.4041C26.1431 23.2749 26.3635 23.0959 26.5225 22.8672C26.6816 22.6385 26.7595 22.375 26.7562 22.0767C26.7595 21.7685 26.68 21.4967 26.5176 21.2614C26.3552 21.026 26.1199 20.8421 25.8116 20.7095C25.5067 20.5769 25.1388 20.5107 24.7079 20.5107H23.8081V19.0888H24.7079C25.0626 19.0888 25.3725 19.0275 25.6376 18.9048C25.9061 18.7822 26.1165 18.6098 26.269 18.3878C26.4215 18.1624 26.496 17.9022 26.4927 17.6072C26.496 17.3189 26.4314 17.0687 26.2988 16.8565C26.1696 16.6411 25.9856 16.4737 25.747 16.3544C25.5117 16.2351 25.2349 16.1754 24.9167 16.1754C24.6052 16.1754 24.3168 16.2318 24.0517 16.3445C23.7865 16.4571 23.5727 16.6179 23.4103 16.8267C23.2479 17.0322 23.1618 17.2775 23.1518 17.5625H21.377C21.3902 16.9924 21.5543 16.492 21.8691 16.0611C22.1873 15.6269 22.6116 15.2888 23.1419 15.0469C23.6722 14.8016 24.2671 14.679 24.9267 14.679C25.6061 14.679 26.1961 14.8066 26.6966 15.0618C27.2003 15.3137 27.5898 15.6534 27.8649 16.081C28.14 16.5085 28.2775 16.9808 28.2775 17.4979C28.2808 18.0713 28.1118 18.5518 27.7704 18.9396C27.4324 19.3274 26.9882 19.581 26.438 19.7003V19.7798C27.1539 19.8793 27.7025 20.1444 28.0836 20.5753C28.4681 21.0028 28.6587 21.5348 28.6554 22.1712C28.6554 22.7412 28.493 23.2517 28.1681 23.7024C27.8467 24.1499 27.4025 24.5012 26.8358 24.7564C26.2723 25.0116 25.626 25.1392 24.8968 25.1392Z" fill="#9CA3AF"/>
</svg>
