<svg width="30" height="30" viewBox="0 0 30 30" fill="none" xmlns="http://www.w3.org/2000/svg">
<path d="M27.5 10.2025V10.2937C27.5 11.3687 27.5 11.9075 27.2412 12.3475C26.9825 12.7875 26.5113 13.0487 25.5713 13.5725L24.58 14.1225C25.2625 11.8125 25.4912 9.32996 25.575 7.20746L25.5875 6.93121L25.59 6.86621C26.4037 7.14871 26.8612 7.35996 27.1462 7.75496C27.5 8.24621 27.5 8.89871 27.5 10.2025ZM2.5 10.2025V10.2937C2.5 11.3687 2.5 11.9075 2.75875 12.3475C3.0175 12.7875 3.48875 13.0487 4.42875 13.5725L5.42125 14.1225C4.7375 11.8125 4.50875 9.32996 4.425 7.20746L4.4125 6.93121L4.41125 6.86621C3.59625 7.14871 3.13875 7.35996 2.85375 7.75496C2.5 8.24621 2.5 8.89996 2.5 10.2025Z" fill="#33CFFF"/>
<path fill-rule="evenodd" clip-rule="evenodd" d="M15 2.50004C17.23 2.50004 19.0662 2.69629 20.4712 2.93379C21.895 3.17379 22.6062 3.29379 23.2012 4.02629C23.7962 4.75879 23.7637 5.55004 23.7012 7.13254C23.4862 12.5688 22.3137 19.3575 15.9375 19.9575V24.375H17.725C18.0138 24.3752 18.2937 24.4754 18.517 24.6586C18.7404 24.8419 18.8933 25.0968 18.95 25.38L19.1875 26.5625H22.5C22.7486 26.5625 22.9871 26.6613 23.1629 26.8371C23.3387 27.0129 23.4375 27.2514 23.4375 27.5C23.4375 27.7487 23.3387 27.9871 23.1629 28.163C22.9871 28.3388 22.7486 28.4375 22.5 28.4375H7.49997C7.25133 28.4375 7.01287 28.3388 6.83705 28.163C6.66124 27.9871 6.56247 27.7487 6.56247 27.5C6.56247 27.2514 6.66124 27.0129 6.83705 26.8371C7.01287 26.6613 7.25133 26.5625 7.49997 26.5625H10.8125L11.05 25.38C11.1066 25.0968 11.2596 24.8419 11.4829 24.6586C11.7062 24.4754 11.9861 24.3752 12.275 24.375H14.0625V19.9575C7.68747 19.3575 6.51497 12.5675 6.29997 7.13254C6.23622 5.55004 6.20497 4.75754 6.79997 4.02629C7.39372 3.29379 8.10497 3.17379 9.52872 2.93379C11.3373 2.63753 13.1673 2.49245 15 2.50004ZM16.19 7.74879L16.0675 7.52879C15.5925 6.67504 15.355 6.25004 15 6.25004C14.645 6.25004 14.4075 6.67504 13.9325 7.52879L13.81 7.74879C13.675 7.99129 13.6075 8.11129 13.5025 8.19129C13.3962 8.27129 13.265 8.30129 13.0025 8.36004L12.765 8.41504C11.8425 8.62379 11.3812 8.72754 11.2712 9.08004C11.1612 9.43254 11.4762 9.80129 12.105 10.5363L12.2675 10.7263C12.4462 10.935 12.5362 11.0388 12.5762 11.1688C12.6162 11.2988 12.6025 11.4375 12.5762 11.7163L12.5512 11.97C12.4562 12.9513 12.4087 13.4425 12.695 13.66C12.9825 13.8775 13.415 13.6788 14.2787 13.2813L14.5012 13.1788C14.7475 13.0663 14.87 13.01 15 13.01C15.13 13.01 15.2525 13.0663 15.4987 13.1788L15.7212 13.2813C16.585 13.68 17.0175 13.8775 17.305 13.66C17.5925 13.4425 17.5437 12.9513 17.4487 11.97L17.4237 11.7163C17.3975 11.4375 17.3837 11.2988 17.4237 11.1688C17.4637 11.0388 17.5537 10.935 17.7325 10.7263L17.895 10.5363C18.5237 9.80129 18.8387 9.43379 18.7287 9.08004C18.6187 8.72754 18.1575 8.62379 17.235 8.41504L16.9975 8.36004C16.735 8.30129 16.6037 8.27254 16.4975 8.19129C16.3925 8.11129 16.325 7.99129 16.19 7.74879Z" fill="#33CFFF"/>
</svg>
