<svg width="20" height="21" viewBox="0 0 20 21" fill="none" xmlns="http://www.w3.org/2000/svg">
<path d="M0.750122 10.2396V12.75C0.750122 16.0498 0.750122 17.6997 1.77525 18.7249C2.80037 19.75 4.45029 19.75 7.75012 19.75H11.7501C15.0499 19.75 16.6998 19.75 17.725 18.7249C18.7501 17.6997 18.7501 16.0498 18.7501 12.75V10.2396C18.7501 8.5583 18.7501 7.71773 18.3942 6.99005C18.0383 6.26237 17.3748 5.74628 16.0477 4.71411L14.0477 3.15855C11.9832 1.55285 10.951 0.75 9.75012 0.75C8.54922 0.75 7.51701 1.55285 5.45254 3.15855L3.45253 4.71411C2.12545 5.74628 1.46191 6.26237 1.10602 6.99005C0.750122 7.71773 0.750122 8.5583 0.750122 10.2396Z" stroke="#F9FAFB" stroke-width="1.5" stroke-linecap="round" stroke-linejoin="round"/>
</svg>
