<svg width="15" height="15" viewBox="0 0 15 15" fill="none" xmlns="http://www.w3.org/2000/svg">
<path fill-rule="evenodd" clip-rule="evenodd" d="M8.27 0.850007C8.665 0.376257 9.43437 0.700007 9.37187 1.31376L8.93062 5.62501H12.5C12.6188 5.62505 12.735 5.65893 12.8352 5.72268C12.9354 5.78642 13.0154 5.8774 13.0658 5.98495C13.1161 6.0925 13.1348 6.21217 13.1196 6.32996C13.1044 6.44774 13.056 6.55876 12.98 6.65001L6.72999 14.15C6.33499 14.6238 5.56562 14.3 5.62812 13.6863L6.06937 9.37501H2.49999C2.38124 9.37496 2.26495 9.34108 2.16475 9.27734C2.06455 9.21359 1.98458 9.12262 1.93422 9.01507C1.88385 8.90752 1.86517 8.78784 1.88036 8.67006C1.89555 8.55228 1.94399 8.44126 2.02 8.35001L8.27 0.850007Z" fill="#131F54"/>
<path fill-rule="evenodd" clip-rule="evenodd" d="M8.27 0.850007C8.665 0.376257 9.43437 0.700007 9.37187 1.31376L8.93062 5.62501H12.5C12.6188 5.62505 12.735 5.65893 12.8352 5.72268C12.9354 5.78642 13.0154 5.8774 13.0658 5.98495C13.1161 6.0925 13.1348 6.21217 13.1196 6.32996C13.1044 6.44774 13.056 6.55876 12.98 6.65001L6.72999 14.15C6.33499 14.6238 5.56562 14.3 5.62812 13.6863L6.06937 9.37501H2.49999C2.38124 9.37496 2.26495 9.34108 2.16475 9.27734C2.06455 9.21359 1.98458 9.12262 1.93422 9.01507C1.88385 8.90752 1.86517 8.78784 1.88036 8.67006C1.89555 8.55228 1.94399 8.44126 2.02 8.35001L8.27 0.850007Z" fill="#33CFFF"/>
</svg>
