<svg width="35" height="35" viewBox="0 0 35 35" fill="none" xmlns="http://www.w3.org/2000/svg">
<path d="M16.0417 22.3971H15.9674C15.6004 22.3967 15.2487 22.2507 14.9892 21.9913C14.7297 21.7318 14.5838 21.38 14.5834 21.0131C14.5834 20.6263 14.4298 20.2554 14.1563 19.9819C13.8828 19.7084 13.5119 19.5548 13.1251 19.5548C12.7383 19.5548 12.3674 19.7084 12.0939 19.9819C11.8204 20.2554 11.6667 20.6263 11.6667 21.0131C11.6671 22.1536 12.1204 23.2472 12.9268 24.0537C13.7332 24.8601 14.8269 25.3133 15.9674 25.3137H16.0417V26.7721C16.0417 27.1588 16.1954 27.5298 16.4689 27.8033C16.7424 28.0767 17.1133 28.2304 17.5001 28.2304C17.8869 28.2304 18.2578 28.0767 18.5313 27.8033C18.8048 27.5298 18.9584 27.1588 18.9584 26.7721V25.3137C20.1187 25.3137 21.2315 24.8528 22.052 24.0323C22.8725 23.2118 23.3334 22.099 23.3334 20.9387C23.3334 19.7784 22.8725 18.6656 22.052 17.8451C21.2315 17.0247 20.1187 16.5637 18.9584 16.5637V13.6471H18.9905C19.778 13.6471 20.4167 14.2858 20.4167 15.0733C20.4167 15.4601 20.5704 15.831 20.8439 16.1045C21.1174 16.378 21.4883 16.5316 21.8751 16.5316C22.2619 16.5316 22.6328 16.378 22.9063 16.1045C23.1798 15.831 23.3334 15.4601 23.3334 15.0733C23.3326 13.9217 22.8748 12.8175 22.0606 12.0033C21.2463 11.189 20.1421 10.7312 18.9905 10.7304H18.9584V9.27205C18.9584 8.88528 18.8048 8.51435 18.5313 8.24086C18.2578 7.96737 17.8869 7.81372 17.5001 7.81372C17.1133 7.81372 16.7424 7.96737 16.4689 8.24086C16.1954 8.51435 16.0417 8.88528 16.0417 9.27205V10.7304C15.4672 10.7304 14.8983 10.8436 14.3675 11.0634C13.8367 11.2833 13.3544 11.6055 12.9482 12.0118C12.5419 12.4181 12.2196 12.9003 11.9998 13.4311C11.7799 13.9619 11.6667 14.5309 11.6667 15.1054C11.6667 15.6799 11.7799 16.2488 11.9998 16.7796C12.2196 17.3104 12.5419 17.7927 12.9482 18.199C13.3544 18.6052 13.8367 18.9275 14.3675 19.1474C14.8983 19.3672 15.4672 19.4804 16.0417 19.4804V22.3971ZM18.9584 22.3971V19.4804C19.3452 19.4804 19.7161 19.634 19.9896 19.9075C20.2631 20.181 20.4167 20.5519 20.4167 20.9387C20.4167 21.3255 20.2631 21.6964 19.9896 21.9699C19.7161 22.2434 19.3452 22.3971 18.9584 22.3971ZM16.0417 13.6471V16.5637C15.655 16.5637 15.284 16.4101 15.0106 16.1366C14.7371 15.8631 14.5834 15.4922 14.5834 15.1054C14.5834 14.7186 14.7371 14.3477 15.0106 14.0742C15.284 13.8007 15.655 13.6471 16.0417 13.6471ZM17.5001 32.6054C9.44571 32.6054 2.91675 26.0764 2.91675 18.0221C2.91675 9.96768 9.44571 3.43872 17.5001 3.43872C25.5545 3.43872 32.0834 9.96768 32.0834 18.0221C32.0834 26.0764 25.5545 32.6054 17.5001 32.6054Z" fill="#33CFFF"/>
</svg>
