<svg width="28" height="28" viewBox="0 0 28 28" fill="none" xmlns="http://www.w3.org/2000/svg">
<path fill-rule="evenodd" clip-rule="evenodd" d="M23.94 2.43149C24.189 2.47216 24.4134 2.60545 24.5683 2.80463C24.7232 3.00381 24.797 3.25416 24.775 3.50549L24.7655 3.57949C24.3229 6.29116 23.7344 8.52249 23 10.2735C22.3334 11.8625 21.2034 13.7403 19.61 15.907L19.219 16.4325L19.0165 16.6995C18.3964 17.513 18.0155 18.4834 17.9165 19.5015C17.7779 20.9338 17.4724 21.959 17 22.577C15.2934 24.458 13.7077 25.6862 12.243 26.2615C12.1639 26.2925 12.0782 26.3029 11.994 26.2917C11.9098 26.2804 11.8299 26.2479 11.7617 26.1971C11.6936 26.1464 11.6395 26.0791 11.6045 26.0017C11.5696 25.9242 11.555 25.8392 11.562 25.7545L11.9445 21.167C11.9502 21.0992 11.942 21.0309 11.9203 20.9664C11.8987 20.9019 11.8641 20.8424 11.8187 20.7917C11.7733 20.741 11.718 20.7001 11.6563 20.6716C11.5945 20.643 11.5276 20.6273 11.4595 20.6255L11.4015 20.6275C10.6055 20.6992 9.80503 20.3825 9.00003 19.6775C8.29103 19.0568 7.91586 18.431 7.87453 17.8L7.87053 17.6885C7.87032 17.6117 7.85243 17.5361 7.81826 17.4673C7.7841 17.3986 7.73456 17.3386 7.6735 17.2921C7.61243 17.2456 7.54148 17.2138 7.46614 17.1991C7.3908 17.1844 7.31309 17.1873 7.23903 17.2075L3.50553 18.2255C3.41914 18.249 3.32802 18.2489 3.2417 18.2251C3.15537 18.2014 3.077 18.1549 3.01477 18.0905C2.95255 18.0262 2.90875 17.9463 2.88795 17.8592C2.86715 17.7721 2.87011 17.681 2.89653 17.5955L2.91653 17.5405L3.11603 17.0955L3.30953 16.671L3.49753 16.2675L3.68003 15.885L3.85753 15.523L3.94403 15.35L4.11253 15.0195L4.27603 14.7095L4.35603 14.5625L4.51103 14.2845L4.66103 14.027C4.73436 13.9037 4.8057 13.788 4.87503 13.68L5.01103 13.475C5.1887 13.215 5.3517 13.0108 5.50003 12.8625C6.05303 12.3092 7.13353 11.7988 8.74153 11.3315C9.5784 11.0882 10.3371 10.6304 10.9425 10.0035C11.0925 9.84783 11.2412 9.69549 11.3885 9.54649L11.8255 9.10849C12.1704 8.76651 12.5208 8.43013 12.8765 8.09949L13.281 7.72949L13.676 7.37949C14.7167 6.47149 15.658 5.77066 16.5 5.27699C16.9524 5.01199 17.4784 4.74199 18.078 4.46699L18.4885 4.28299L18.702 4.19049L19.1455 4.00449C19.2969 3.94216 19.4519 3.87966 19.6105 3.81699L20.098 3.62799L20.6065 3.43799L21.1375 3.24599L21.69 3.05299L22.264 2.85799L22.559 2.76049L23.1665 2.56349L23.478 2.46449C23.6273 2.41749 23.7856 2.40619 23.94 2.43149ZM7.50003 19.5C7.6837 19.5007 7.8617 19.5197 8.03403 19.557C7.6407 19.7473 7.3917 20.413 7.28703 21.554L7.27453 21.7055C7.26892 21.7777 7.27907 21.8503 7.30426 21.9182C7.32946 21.9861 7.36911 22.0477 7.42046 22.0988C7.47182 22.1498 7.53365 22.1891 7.60169 22.2139C7.66973 22.2388 7.74235 22.2485 7.81453 22.2425C9.03753 22.1392 9.7472 21.8813 9.94353 21.469C9.98086 21.6407 9.9997 21.8177 10 22C10 22.92 9.33336 23.5867 8.00003 24L5.84653 24.217C5.77313 24.2244 5.699 24.2155 5.62946 24.1908C5.55992 24.1662 5.4967 24.1265 5.44432 24.0745C5.39194 24.0226 5.3517 23.9597 5.3265 23.8903C5.30129 23.821 5.29174 23.747 5.29853 23.6735L5.50003 21.5C5.91303 20.1667 6.5797 19.5 7.50003 19.5ZM17.75 7.99999C17.1533 7.99999 16.581 8.23705 16.159 8.659C15.7371 9.08096 15.5 9.65326 15.5 10.25C15.5 10.8467 15.7371 11.419 16.159 11.841C16.581 12.2629 17.1533 12.5 17.75 12.5C18.3468 12.5 18.9191 12.2629 19.341 11.841C19.763 11.419 20 10.8467 20 10.25C20 9.65326 19.763 9.08096 19.341 8.659C18.9191 8.23705 18.3468 7.99999 17.75 7.99999Z" fill="#33CFFF"/>
</svg>
