<svg width="23" height="14" viewBox="0 0 23 14" fill="none" xmlns="http://www.w3.org/2000/svg">
<path d="M18.75 12.75V13.5H21C21.3978 13.5 21.7794 13.342 22.0607 13.0607C22.342 12.7794 22.5 12.3978 22.5 12V9.75H21.75C20.9546 9.75087 20.1921 10.0672 19.6296 10.6296C19.0672 11.1921 18.7509 11.9546 18.75 12.75ZM21.75 3.75H22.5V1.5C22.5 1.10218 22.342 0.720644 22.0607 0.43934C21.7794 0.158035 21.3978 0 21 0H18.75V0.75C18.7509 1.54538 19.0672 2.30794 19.6296 2.87036C20.1921 3.43278 20.9546 3.74913 21.75 3.75ZM3.75 0.75V0H1.5C1.10218 0 0.720644 0.158035 0.43934 0.43934C0.158035 0.720644 0 1.10218 0 1.5V3.75H0.75C1.54538 3.74913 2.30794 3.43278 2.87036 2.87036C3.43278 2.30794 3.74913 1.54538 3.75 0.75Z" fill="#9CA3AF"/>
</svg>
