<svg width="14" height="14" viewBox="0 0 14 14" fill="none" xmlns="http://www.w3.org/2000/svg">
<path fill-rule="evenodd" clip-rule="evenodd" d="M6.75 13.5C7.63642 13.5 8.51417 13.3254 9.33311 12.9862C10.1521 12.647 10.8962 12.1498 11.523 11.523C12.1498 10.8962 12.647 10.1521 12.9862 9.33311C13.3254 8.51417 13.5 7.63642 13.5 6.75C13.5 5.86358 13.3254 4.98583 12.9862 4.16689C12.647 3.34794 12.1498 2.60382 11.523 1.97703C10.8962 1.35023 10.1521 0.853032 9.33311 0.513813C8.51417 0.174594 7.63642 -1.32087e-08 6.75 0C4.95979 2.66762e-08 3.2429 0.711159 1.97703 1.97703C0.711159 3.2429 0 4.95979 0 6.75C0 8.54021 0.711159 10.2571 1.97703 11.523C3.2429 12.7888 4.95979 13.5 6.75 13.5ZM6.576 9.48L10.326 4.98L9.174 4.02L5.949 7.88925L4.28025 6.21975L3.21975 7.28025L5.46975 9.53025L6.05025 10.1108L6.576 9.48Z" fill="#33CFFF"/>
</svg>
