<svg width="16" height="22" viewBox="0 0 16 22" fill="none" xmlns="http://www.w3.org/2000/svg">
<path d="M14.6667 0H1.33333C0.979711 0 0.640573 0.140476 0.390524 0.390524C0.140476 0.640573 0 0.979711 0 1.33333V20C0 20.3536 0.140476 20.6928 0.390524 20.9428C0.640573 21.1929 0.979711 21.3333 1.33333 21.3333H14.6667C15.0203 21.3333 15.3594 21.1929 15.6095 20.9428C15.8595 20.6928 16 20.3536 16 20V1.33333C16 0.979711 15.8595 0.640573 15.6095 0.390524C15.3594 0.140476 15.0203 0 14.6667 0ZM4.66667 16H3.33333V14.6667H4.66667V16ZM4.66667 13.3333H3.33333V12H4.66667V13.3333ZM4.66667 10.6667H3.33333V9.33333H4.66667V10.6667ZM4.66667 8H3.33333V6.66667H4.66667V8ZM4.66667 5.33333H3.33333V4H4.66667V5.33333ZM12.6667 16H6V14.6667H12.6667V16ZM12.6667 13.3333H6V12H12.6667V13.3333ZM12.6667 10.6667H6V9.33333H12.6667V10.6667ZM12.6667 8H6V6.66667H12.6667V8ZM12.6667 5.33333H6V4H12.6667V5.33333Z" fill="#9CA3AF"/>
</svg>
