<svg width="35" height="35" viewBox="0 0 35 35" fill="none" xmlns="http://www.w3.org/2000/svg">
<path d="M22.48 10.718C22.0579 10.7183 21.6489 10.8648 21.3228 11.1328C20.9967 11.4007 20.7735 11.7735 20.6914 12.1875C20.6092 12.6015 20.6732 13.0312 20.8724 13.4034C21.0715 13.7755 21.3935 14.0671 21.7836 14.2285C22.1736 14.3898 22.6076 14.411 23.0114 14.2882C23.4153 14.1655 23.7641 13.9066 23.9985 13.5555C24.2328 13.2045 24.3382 12.783 24.2967 12.363C24.2551 11.9429 24.0692 11.5503 23.7706 11.2519C23.6013 11.0822 23.4001 10.9477 23.1786 10.8561C22.9571 10.7645 22.7197 10.7176 22.48 10.718Z" fill="#33CFFF"/>
<path d="M32.6376 3.42204C32.6373 3.42 32.6373 3.41792 32.6376 3.41589C32.5798 3.16249 32.4523 2.93029 32.2696 2.74548C32.0868 2.56068 31.856 2.43062 31.6033 2.36999C29.5662 1.87301 26.3615 2.4028 22.8102 3.82467C19.2309 5.26022 15.8772 7.37936 13.6104 9.65026C12.8839 10.373 12.2089 11.1458 11.5904 11.9629C10.0639 11.8945 8.71932 12.1119 7.5866 12.6061C3.63953 14.3431 2.51228 18.7885 2.21219 20.6137C2.16876 20.8731 2.18577 21.1389 2.26187 21.3906C2.33798 21.6423 2.47114 21.8731 2.65099 22.0649C2.83084 22.2567 3.05253 22.4044 3.2988 22.4966C3.54507 22.5887 3.80928 22.6228 4.07088 22.5962H4.07977L8.47664 22.1163C8.48211 22.1723 8.48826 22.2236 8.49305 22.2708C8.54952 22.8065 8.78846 23.3066 9.1698 23.6872L11.3156 25.8343C11.6956 26.2162 12.1956 26.4555 12.7313 26.5118L12.8783 26.5275L12.3998 30.9189V30.9278C12.3753 31.1643 12.4005 31.4033 12.4737 31.6295C12.5469 31.8558 12.6664 32.0642 12.8248 32.2416C12.9831 32.419 13.1767 32.5614 13.3932 32.6597C13.6097 32.758 13.8444 32.81 14.0821 32.8125C14.1772 32.8126 14.272 32.8048 14.3658 32.7892C16.2012 32.4939 20.6446 31.3803 22.3768 27.4121C22.867 26.2869 23.0837 24.9477 23.0228 23.424C23.8436 22.8069 24.6192 22.1318 25.3436 21.404C27.6289 19.1303 29.7549 15.804 31.1754 12.2766C32.5897 8.76569 33.1222 5.53708 32.6376 3.42204ZM25.319 15.3767C24.7573 15.939 24.0415 16.322 23.2621 16.4774C22.4826 16.6328 21.6746 16.5534 20.9403 16.2495C20.206 15.9455 19.5783 15.4306 19.1366 14.7698C18.695 14.1091 18.4593 13.3322 18.4593 12.5374C18.4593 11.7427 18.695 10.9658 19.1366 10.305C19.5783 9.64423 20.206 9.1293 20.9403 8.82535C21.6746 8.5214 22.4826 8.44208 23.2621 8.59744C24.0415 8.75279 24.7573 9.13584 25.319 9.69811C25.6955 10.0689 25.9945 10.5109 26.1985 10.9984C26.4026 11.4858 26.5077 12.009 26.5077 12.5374C26.5077 13.0659 26.4026 13.589 26.1985 14.0765C25.9945 14.5639 25.6955 15.0059 25.319 15.3767Z" fill="#33CFFF"/>
<path d="M11.0695 26.4168C10.805 26.384 10.5376 26.4489 10.3176 26.5993C9.88078 26.898 9.44191 27.1933 8.99894 27.4811C8.10275 28.0636 7.03088 27.0409 7.5634 26.114L8.39396 24.6784C8.51271 24.5047 8.57883 24.3004 8.58439 24.0901C8.58996 23.8798 8.53474 23.6723 8.42535 23.4925C8.31596 23.3128 8.15705 23.1684 7.96767 23.0767C7.77829 22.985 7.56647 22.9499 7.35763 22.9756C6.43581 23.0921 5.57895 23.512 4.92199 24.1691C4.67179 24.42 3.91095 25.1815 3.50148 28.0834C3.38494 28.9169 3.31147 29.7559 3.28137 30.597C3.27762 30.7429 3.30315 30.8882 3.35644 31.0241C3.40973 31.1601 3.4897 31.284 3.59164 31.3885C3.69358 31.4931 3.81542 31.5762 3.94998 31.6329C4.08454 31.6896 4.22909 31.7188 4.37512 31.7187H4.40246C5.24419 31.6889 6.08384 31.6159 6.91808 31.5C9.82131 31.0898 10.5828 30.3283 10.833 30.0781C11.4931 29.4208 11.912 28.56 12.0218 27.6349C12.0569 27.3472 11.9764 27.0572 11.7978 26.8288C11.6193 26.6003 11.3573 26.4522 11.0695 26.4168Z" fill="#33CFFF"/>
</svg>
