<svg width="58" height="58" viewBox="0 0 58 58" fill="none" xmlns="http://www.w3.org/2000/svg">
<rect x="0.5" y="0.5" width="57" height="57" rx="4.5" fill="#1F1F1F"/>
<rect x="0.5" y="0.5" width="57" height="57" rx="4.5" stroke="#404040"/>
<path fill-rule="evenodd" clip-rule="evenodd" d="M20.6666 20.6666C20.6666 16.0633 24.3966 12.3333 28.9999 12.3333C33.6033 12.3333 37.3333 16.0633 37.3333 20.6666V25.6666H37.9999C39.4666 25.6666 40.6666 26.8666 40.6666 28.3333V40C40.6666 42.2 38.8666 44 36.6666 44H21.3333C19.1333 44 17.3333 42.2 17.3333 40V28.3333C17.3333 26.8666 18.5333 25.6666 19.9999 25.6666H20.6666V20.6666ZM33.9999 20.6666V25.6666H23.9999V20.6666C23.9999 17.9033 26.2366 15.6666 28.9999 15.6666C31.7633 15.6666 33.9999 17.9033 33.9999 20.6666ZM28.9999 29.4166C28.3372 29.416 27.6939 29.641 27.1761 30.0548C26.6584 30.4685 26.297 31.0462 26.1514 31.6928C26.0059 32.3394 26.0849 33.0163 26.3754 33.612C26.666 34.2077 27.1508 34.6866 27.7499 34.97V39C27.7499 39.3315 27.8816 39.6494 28.116 39.8839C28.3505 40.1183 28.6684 40.25 28.9999 40.25C29.3314 40.25 29.6494 40.1183 29.8838 39.8839C30.1182 39.6494 30.2499 39.3315 30.2499 39V34.97C30.8491 34.6866 31.3338 34.2077 31.6244 33.612C31.915 33.0163 31.994 32.3394 31.8484 31.6928C31.7029 31.0462 31.3415 30.4685 30.8237 30.0548C30.3059 29.641 29.6627 29.416 28.9999 29.4166Z" fill="#9CA3AF"/>
</svg>
