<svg width="100" height="100" viewBox="0 0 100 100" fill="none" xmlns="http://www.w3.org/2000/svg">
<path d="M49.9999 91.6667C44.3055 91.6667 38.9235 90.5723 33.8541 88.3834C28.7846 86.1945 24.3583 83.2084 20.5749 79.425C16.7916 75.6417 13.8055 71.2153 11.6166 66.1459C9.4277 61.0764 8.33325 55.6945 8.33325 50C8.33325 44.2362 9.4277 38.8375 11.6166 33.8042C13.8055 28.7709 16.7916 24.3612 20.5749 20.575C24.3583 16.7889 28.7846 13.8028 33.8541 11.6167C38.9235 9.4306 44.3055 8.33615 49.9999 8.33337C51.1805 8.33337 52.1708 8.73337 52.9708 9.53337C53.7708 10.3334 54.1694 11.3223 54.1666 12.5C54.1638 13.6778 53.7638 14.6681 52.9666 15.4709C52.1694 16.2737 51.1805 16.6723 49.9999 16.6667C40.7638 16.6667 32.8985 19.9139 26.4041 26.4084C19.9096 32.9028 16.6638 40.7667 16.6666 50C16.6694 59.2334 19.9166 67.0987 26.4083 73.5959C32.8999 80.0931 40.7638 83.3389 49.9999 83.3334C59.236 83.3278 67.1013 80.082 73.5957 73.5959C80.0902 67.1098 83.336 59.2445 83.3332 50C83.3332 48.8195 83.7332 47.8306 84.5332 47.0334C85.3332 46.2362 86.3221 45.8362 87.4999 45.8334C88.6777 45.8306 89.668 46.2306 90.4707 47.0334C91.2735 47.8362 91.6721 48.825 91.6666 50C91.6666 55.6945 90.5721 61.0764 88.3832 66.1459C86.1944 71.2153 83.2083 75.6431 79.4249 79.4292C75.6416 83.2153 71.2319 86.2014 66.1958 88.3875C61.1596 90.5737 55.761 91.6667 49.9999 91.6667Z" fill="url(#paint0_linear_65_154)"/>
<path fill-rule="evenodd" clip-rule="evenodd" d="M51.54 36.7C52.33 35.7525 53.8688 36.4 53.7438 37.6275L52.8613 46.25H60C60.2375 46.2501 60.4701 46.3179 60.6705 46.4454C60.8709 46.5728 61.0308 46.7548 61.1316 46.9699C61.2323 47.185 61.2697 47.4243 61.2393 47.6599C61.2089 47.8955 61.112 48.1175 60.96 48.3L48.46 63.3C47.67 64.2475 46.1313 63.6 46.2563 62.3725L47.1388 53.75H40C39.7625 53.7499 39.5299 53.6822 39.3295 53.5547C39.1291 53.4272 38.9692 53.2452 38.8685 53.0301C38.7677 52.815 38.7304 52.5757 38.7608 52.3401C38.7911 52.1046 38.888 51.8825 39.04 51.7L51.54 36.7Z" fill="url(#paint1_linear_65_154)"/>
<defs>
<linearGradient id="paint0_linear_65_154" x1="8.33325" y1="56.5377" x2="91.6686" y2="56.5254" gradientUnits="userSpaceOnUse">
<stop stop-color="#33CFFF"/>
<stop offset="1" stop-color="#475FAF"/>
</linearGradient>
<linearGradient id="paint1_linear_65_154" x1="38.7505" y1="52.158" x2="61.2501" y2="52.1553" gradientUnits="userSpaceOnUse">
<stop stop-color="#33CFFF"/>
<stop offset="1" stop-color="#475FAF"/>
</linearGradient>
</defs>
</svg>
