<svg width="24" height="24" viewBox="0 0 24 24" fill="none" xmlns="http://www.w3.org/2000/svg">
<path d="M20.6775 17.0765L14.761 4.38802C14.4247 3.66689 13.8157 3.1089 13.068 2.83678C12.3203 2.56467 11.4951 2.60072 10.774 2.93702C10.0529 3.27331 9.49488 3.8823 9.22277 4.63C8.95065 5.37771 8.98671 6.20289 9.323 6.92402L15.24 19.612C15.5762 20.3331 16.1852 20.8912 16.9328 21.1633C17.6805 21.4355 18.5056 21.3995 19.2268 21.0633C19.9479 20.727 20.5059 20.1181 20.7781 19.3705C21.0502 18.6228 21.0137 17.7976 20.6775 17.0765Z" fill="#9CA3AF" stroke="#9CA3AF" stroke-width="2"/>
<path d="M11.719 13.268L8.76 19.612C8.5935 19.9691 8.35829 20.2899 8.06781 20.556C7.77733 20.8222 7.43726 21.0285 7.06703 21.1633C6.6968 21.298 6.30365 21.3585 5.91004 21.3413C5.51643 21.3241 5.13006 21.2295 4.773 21.063C4.05198 20.7267 3.49406 20.1178 3.22195 19.3702C2.94984 18.6226 2.98583 17.7976 3.322 17.0765L9.187 4.5" stroke="#9CA3AF" stroke-width="2" stroke-linecap="round"/>
<path d="M4.77364 21.0629C6.27526 21.7631 8.0602 21.1134 8.76042 19.6118C9.46063 18.1102 8.81097 16.3252 7.30935 15.625C5.80773 14.9248 4.02279 15.5745 3.32257 17.0761C2.62235 18.5777 3.27202 20.3627 4.77364 21.0629Z" fill="#9CA3AF" stroke="#9CA3AF" stroke-width="2"/>
</svg>
