<svg width="58" height="58" viewBox="0 0 58 58" fill="none" xmlns="http://www.w3.org/2000/svg">
<rect x="0.5" y="0.5" width="57" height="57" rx="4.5" fill="#1F1F1F"/>
<rect x="0.5" y="0.5" width="57" height="57" rx="4.5" stroke="#404040"/>
<path fill-rule="evenodd" clip-rule="evenodd" d="M20.6666 20.6667C20.6666 16.0634 24.3966 12.3334 28.9999 12.3334C33.6033 12.3334 37.3333 16.0634 37.3333 20.6667V25.6667H37.9999C39.4666 25.6667 40.6666 26.8667 40.6666 28.3334V40C40.6666 42.2 38.8666 44 36.6666 44H21.3333C19.1333 44 17.3333 42.2 17.3333 40V28.3334C17.3333 26.8667 18.5333 25.6667 19.9999 25.6667H20.6666V20.6667ZM33.9999 20.6667V25.6667H23.9999V20.6667C23.9999 17.9034 26.2366 15.6667 28.9999 15.6667C31.7633 15.6667 33.9999 17.9034 33.9999 20.6667ZM28.9999 29.4167C28.3372 29.416 27.6939 29.6411 27.1761 30.0548C26.6584 30.4685 26.297 31.0463 26.1514 31.6929C26.0059 32.3395 26.0849 33.0164 26.3754 33.612C26.666 34.2077 27.1508 34.6867 27.7499 34.97V39C27.7499 39.3316 27.8816 39.6495 28.116 39.8839C28.3505 40.1183 28.6684 40.25 28.9999 40.25C29.3314 40.25 29.6494 40.1183 29.8838 39.8839C30.1182 39.6495 30.2499 39.3316 30.2499 39V34.97C30.8491 34.6867 31.3338 34.2077 31.6244 33.612C31.915 33.0164 31.994 32.3395 31.8484 31.6929C31.7029 31.0463 31.3415 30.4685 30.8237 30.0548C30.3059 29.6411 29.6627 29.416 28.9999 29.4167Z" fill="#9CA3AF"/>
</svg>
