<svg width="35" height="35" viewBox="0 0 35 35" fill="none" xmlns="http://www.w3.org/2000/svg">
<path fill-rule="evenodd" clip-rule="evenodd" d="M19.2966 1.98335C20.2183 0.877932 22.0135 1.63335 21.8677 3.06543L20.8381 13.125H29.1666C29.4437 13.1251 29.7151 13.2042 29.9489 13.3529C30.1827 13.5017 30.3692 13.7139 30.4868 13.9649C30.6043 14.2158 30.6479 14.4951 30.6124 14.7699C30.577 15.0447 30.464 15.3038 30.2866 15.5167L15.7033 33.0167C14.7816 34.1221 12.9864 33.3667 13.1322 31.9346L14.1618 21.875H5.83328C5.55617 21.8749 5.28483 21.7959 5.05103 21.6471C4.81723 21.4984 4.63065 21.2861 4.51313 21.0352C4.39561 20.7842 4.35202 20.505 4.38747 20.2301C4.42292 19.9553 4.53593 19.6963 4.71328 19.4833L19.2966 1.98335Z" fill="#33CFFF"/>
</svg>
