<svg width="58" height="58" viewBox="0 0 58 58" fill="none" xmlns="http://www.w3.org/2000/svg">
<rect x="0.5" y="0.5" width="57" height="57" rx="4.5" fill="#1F1F1F"/>
<rect x="0.5" y="0.5" width="57" height="57" rx="4.5" stroke="#33CFFF"/>
<path d="M27.8331 13.2505C27.5124 13.2511 27.1916 13.2584 26.8712 13.2725C26.1826 13.3949 25.8646 13.6964 25.6919 14.0415C25.5017 14.4219 25.5091 14.9339 25.7212 15.3891C25.9335 15.8446 26.3228 16.2169 26.8663 16.356C27.4099 16.4951 28.1582 16.4232 29.1417 15.7945L29.9279 17.025C28.6921 17.8148 27.4963 18.0232 26.505 17.7695C25.5137 17.5158 24.7782 16.8224 24.3981 16.0068C24.04 15.2383 23.9742 14.3368 24.3177 13.5362C20.9648 14.0783 17.9288 15.3641 15.5969 17.1738C14.8305 18.0088 14.7555 18.9793 15.0914 19.6421C15.4687 20.3863 16.3578 20.9296 18.1359 20.3671L18.5778 21.7587C16.345 22.465 14.5046 21.7128 13.7903 20.3037C13.6161 19.9601 13.5097 19.5883 13.4679 19.205C13.0918 19.6512 12.7523 20.1158 12.4523 20.599L12.4621 20.6037C11.7891 22.1362 11.7738 23.1977 12.0421 23.8875C12.3105 24.5773 12.873 25.0156 13.739 25.2572C15.4709 25.74 18.2753 25.1574 20.2502 23.6825C21.0955 23.0512 21.8968 21.5202 21.9666 20.3329C22.0013 19.7391 21.8755 19.2701 21.6271 18.9705C21.3787 18.671 20.9809 18.4469 20.1573 18.4554L20.1427 16.9955C21.2745 16.9838 22.1935 17.3669 22.7502 18.038C23.3067 18.7091 23.4736 19.5733 23.424 20.4183C23.3248 22.1084 22.44 23.8693 21.1241 24.8519C18.7901 26.5952 15.7073 27.3212 13.3484 26.6635C12.2555 26.3588 11.2882 25.6958 10.7898 24.669C10.044 28.2194 11.1275 31.5174 13.1896 33.7997C13.4591 34.0982 13.746 34.3802 14.0466 34.6419C13.8315 34.0258 13.7329 33.3841 13.756 32.7597C13.7974 31.6405 14.2312 30.5451 15.1013 29.7886C15.8149 29.1678 16.8007 28.8097 17.9797 28.812C18.0583 28.812 18.1386 28.8134 18.2189 28.8167C18.4025 28.8245 18.591 28.8405 18.783 28.8656L18.5923 30.3134C17.3745 30.1534 16.5841 30.4323 16.0583 30.8896C15.5325 31.3469 15.2424 32.0313 15.2135 32.8134C15.1557 34.3778 16.1565 36.2045 18.3143 36.7344L18.3118 36.749C20.4362 37.1545 22.8068 36.7781 25.1868 35.3256C25.1882 35.3247 25.1902 35.3243 25.1916 35.3233C25.6869 34.9756 25.9537 34.6351 26.0852 34.3418C26.2403 33.9955 26.237 33.694 26.1266 33.3701C25.906 32.7224 25.1157 32.0566 24.3909 31.8711C23.2188 31.5711 22.4743 31.9833 22.1252 32.4742C21.7762 32.9648 21.7549 33.4469 22.2937 33.8656L21.3976 35.018C20.2892 34.156 20.2185 32.6362 20.9362 31.6269C21.4747 30.8701 22.4194 30.3515 23.5584 30.3183C23.6064 30.3166 23.6545 30.3158 23.7025 30.316C24.0389 30.3183 24.3892 30.3646 24.7523 30.4574C25.9636 30.7676 27.0835 31.6509 27.5085 32.8988C27.6219 33.2333 27.6716 33.5861 27.6551 33.939C28.9605 33.2719 30.3373 32.6796 31.7396 32.2347C34.0955 31.1582 35.1169 29.2708 35.0771 27.6816C35.0369 26.0806 34.0469 24.7332 31.7665 24.5077L31.9105 23.0551C34.7751 23.3383 36.4779 25.3869 36.5346 27.6449C36.5676 28.9605 36.0851 30.3295 35.1137 31.4949C36.3693 31.3543 37.6171 31.3781 38.8269 31.622C38.5807 31.1164 38.4613 30.569 38.478 30.0253C38.5309 28.3037 39.9952 26.6977 42.2963 26.6733C42.4535 26.6718 42.6107 26.6774 42.7674 26.6903L42.6502 28.1454C40.7028 27.9893 39.9705 29.0115 39.9379 30.0716C39.9057 31.1201 40.6055 32.2937 42.6113 32.4494C44.8223 32.469 46.4073 31.2699 47.184 29.488C48.2238 27.1024 47.7306 23.5258 44.4618 20.2546C44.3999 20.1926 44.3385 20.1301 44.2762 20.069C44.242 20.3604 44.1672 20.6455 44.0542 20.9162C43.4878 22.2748 42.161 23.1919 40.7827 23.448C38.8816 23.8013 37.3226 23.0303 36.603 21.8538C35.8835 20.6775 36.0724 19.014 37.3671 18.1382L38.1851 19.3491C37.4887 19.8201 37.4601 20.4577 37.8481 21.0921C38.2362 21.7266 39.1114 22.2762 40.5166 22.0151C41.3998 21.8508 42.3834 21.1299 42.7064 20.3549C42.8681 19.9674 42.8994 19.5844 42.7383 19.1463C42.6074 18.7905 42.333 18.3835 41.8227 17.9549L41.808 17.9428C39.674 16.3344 37.4066 15.1777 35.1088 14.4149C35.1102 14.4174 35.1123 14.4196 35.1137 14.4222C35.6359 15.3769 35.6747 16.4598 35.353 17.4178C34.7098 19.3338 32.6913 20.8434 30.1943 20.76C29.6515 20.742 29.1349 21.0037 28.6954 21.5144C28.2558 22.0251 27.9348 22.7733 27.8604 23.5701C27.7116 25.1639 28.4012 26.9206 31.0904 27.7889L30.6407 29.1781C27.4311 28.1419 26.2009 25.6198 26.4048 23.4359C26.5069 22.3441 26.9287 21.3295 27.5889 20.5625C28.2491 19.7955 29.1885 19.2654 30.2428 19.3003C32.1209 19.363 33.5493 18.2 33.9684 16.9516C34.1779 16.3276 34.1508 15.7065 33.8316 15.1231C33.5216 14.5565 32.9074 13.9963 31.8077 13.5875C30.4952 13.3595 29.1653 13.2468 27.8331 13.2505ZM35.7407 32.9331C32.4661 33.1995 28.9152 34.7612 25.9532 36.5708C21.5798 39.2425 16.9774 38.6593 13.7119 36.2364C14.9966 40.8336 19.5488 41.7667 24.2979 40.604C24.7731 40.4255 25.2401 40.0932 25.6383 39.6641C26.1896 39.0698 26.5891 38.2993 26.7148 37.6622L28.148 37.9454C27.9569 38.9128 27.4387 39.8724 26.71 40.6579C26.0108 41.4114 25.0998 42.0133 24.0464 42.1715C23.5178 43.3488 23.0828 44.4902 22.9062 45.2891C22.6289 46.5438 24.0161 47.0255 24.6372 45.7602C26.1233 42.7334 28.2208 40.0391 30.8408 37.7159C32.877 36.3758 34.6225 34.7235 35.7408 32.9331H35.7407Z" fill="#33CFFF"/>
</svg>
