<svg width="58" height="58" viewBox="0 0 58 58" fill="none" xmlns="http://www.w3.org/2000/svg">
<rect x="0.5" y="0.5" width="57" height="57" rx="4.5" fill="#1F1F1F"/>
<rect x="0.5" y="0.5" width="57" height="57" rx="4.5" stroke="#404040"/>
<path fill-rule="evenodd" clip-rule="evenodd" d="M27.3333 17.3333C27.3335 16.3483 27.6246 15.3852 28.1701 14.565C28.7157 13.7448 29.4913 13.1041 30.3997 12.7231C31.3081 12.3422 32.3088 12.2381 33.2761 12.4238C34.2435 12.6095 35.1345 13.0769 35.8372 13.7672C36.5399 14.4575 37.0231 15.3399 37.226 16.3038C37.429 17.2677 37.3427 18.2701 36.9781 19.1852C36.6134 20.1002 35.9865 20.8872 35.1762 21.4472C34.3659 22.0073 33.4082 22.3156 32.4233 22.3333L32.06 23.4216C32.9194 23.9428 33.6654 24.6314 34.2535 25.4465C34.8415 26.2617 35.2598 27.1867 35.4833 28.1666H37.6817C38.0646 27.2893 38.7379 26.5706 39.5884 26.1313C40.4389 25.692 41.4147 25.5589 42.3518 25.7545C43.2888 25.9501 44.13 26.4624 44.7338 27.2052C45.3375 27.948 45.6671 28.876 45.6671 29.8333C45.6671 30.7906 45.3375 31.7186 44.7338 32.4614C44.13 33.2042 43.2888 33.7165 42.3518 33.9121C41.4147 34.1077 40.4389 33.9746 39.5884 33.5353C38.7379 33.096 38.0646 32.3773 37.6817 31.5H35.4817C35.2041 32.7157 34.6279 33.843 33.805 34.78L34.9783 35.9533C35.8694 35.6036 36.8538 35.5714 37.7659 35.8622C38.6779 36.1529 39.462 36.7488 39.9864 37.5497C40.5107 38.3506 40.7433 39.3076 40.645 40.2599C40.5467 41.2121 40.1236 42.1014 39.4467 42.7783C38.7698 43.4552 37.8804 43.8784 36.9282 43.9767C35.976 44.075 35.019 43.8424 34.2181 43.318C33.4172 42.7937 32.8213 42.0095 32.5305 41.0975C32.2398 40.1854 32.272 39.2011 32.6217 38.31L31.065 36.7533C30.1469 37.137 29.1617 37.3341 28.1667 37.3333C27.0215 37.3333 25.8915 37.071 24.8633 36.5666L23.4117 38.31C23.9672 39.3503 24.1371 40.5535 23.8914 41.7069C23.6457 42.8604 23.0002 43.8899 22.0689 44.6135C21.1376 45.3371 19.9806 45.7082 18.8022 45.6613C17.6237 45.6143 16.4999 45.1524 15.6291 44.357C14.7583 43.5616 14.1967 42.4841 14.0435 41.3147C13.8903 40.1454 14.1554 38.9595 14.7919 37.9667C15.4284 36.9738 16.3954 36.238 17.5219 35.889C18.6485 35.5401 19.8621 35.6007 20.9483 36.06L22.2717 34.47C21.2296 33.1493 20.6641 31.5155 20.6667 29.8333C20.6667 28.6083 20.96 27.4516 21.4817 26.4316L20.035 25.225C19.1793 25.6543 18.2018 25.7759 17.2669 25.5692C16.3321 25.3625 15.497 24.8402 14.902 24.0901C14.307 23.34 13.9885 22.4079 14.0001 21.4506C14.0116 20.4932 14.3525 19.5691 14.9653 18.8336C15.5782 18.098 16.4257 17.596 17.3652 17.4119C18.3048 17.2278 19.279 17.3728 20.1242 17.8227C20.9693 18.2725 21.6338 18.9997 22.0057 19.8819C22.3777 20.7641 22.4345 21.7475 22.1667 22.6666L23.6133 23.8733C25.1194 22.7191 27.0085 22.1815 28.8967 22.37L29.26 21.28C28.6597 20.8121 28.174 20.2134 27.8401 19.5295C27.5063 18.8455 27.3329 18.0944 27.3333 17.3333Z" fill="#9CA3AF"/>
</svg>
